<?xml version="1.0" standalone="no"?>
<!DOCTYPE svg PUBLIC "-//W3C//DTD SVG 20010904//EN"
 "http://www.w3.org/TR/2001/REC-SVG-20010904/DTD/svg10.dtd">
<svg version="1.0" xmlns="http://www.w3.org/2000/svg"
 width="279.000000pt" height="279.000000pt" viewBox="0 0 279.000000 279.000000"
 preserveAspectRatio="xMidYMid meet">
<metadata>
Created by potrace 1.14, written by Peter Selinger 2001-2017
</metadata>
<g transform="translate(0.000000,279.000000) scale(0.100000,-0.100000)"
fill="#000000" stroke="none">
<path d="M2150 2193 c0 -6 87 -46 135 -63 37 -13 76 -17 148 -15 54 1 101 5
104 9 11 11 -11 40 -43 56 -21 10 -70 14 -186 15 -87 0 -158 0 -158 -2z"/>
<path d="M2660 2150 c-14 -11 -31 -20 -38 -20 -7 0 -20 -4 -30 -9 -9 -5 -32
-15 -51 -22 -38 -14 -83 -53 -100 -86 -14 -27 -7 -28 47 -9 22 8 43 12 47 8 3
-4 9 -1 13 6 7 10 32 18 65 21 21 2 69 63 74 95 7 42 6 42 -27 16z"/>
<path d="M2100 2094 c-25 -6 -76 -10 -115 -7 l-70 4 42 -25 c41 -24 87 -39
128 -41 25 -2 186 53 200 67 7 8 6 9 -2 4 -7 -4 -13 -3 -13 2 0 12 -116 10
-170 -4z"/>
<path d="M2375 2079 c-127 -15 -223 -66 -261 -139 -11 -19 -22 -38 -27 -41 -4
-3 -9 -36 -11 -73 -5 -76 14 -133 71 -220 18 -27 35 -62 38 -77 4 -16 11 -31
15 -34 10 -6 62 60 91 118 19 36 63 191 72 252 11 69 20 106 28 111 5 3 9 12
9 20 0 8 11 27 25 42 14 15 25 32 25 39 0 7 -1 12 -2 12 -2 -1 -34 -5 -73 -10z"/>
<path d="M70 2023 c0 -5 10 -19 23 -30 37 -35 75 -42 229 -47 108 -4 120 -6
177 -36 34 -18 61 -37 61 -41 0 -5 6 -9 13 -9 6 0 23 -12 36 -25 39 -42 108
-67 197 -72 54 -4 84 -2 88 6 4 6 0 11 -11 12 -56 3 -88 9 -91 18 -2 6 -12 11
-23 11 -10 0 -52 32 -92 71 -96 95 -138 113 -247 112 -47 0 -124 -4 -172 -8
-90 -8 -132 0 -170 33 -10 8 -18 11 -18 5z"/>
<path d="M1815 2004 c59 -56 200 -78 262 -41 18 10 33 23 33 27 0 13 -58 23
-109 20 -88 -6 -146 -4 -176 4 -30 9 -30 8 -10 -10z"/>
<path d="M2563 2013 c-22 -8 -14 -37 18 -63 17 -14 37 -31 44 -37 26 -24 29
43 4 89 -9 17 -39 22 -66 11z"/>
<path d="M2454 1969 c-14 -16 -19 -36 -19 -78 0 -49 5 -63 30 -95 60 -75 63
-84 53 -126 -13 -51 -3 -88 27 -102 21 -9 29 -7 59 16 23 17 37 38 41 59 6 31
5 41 -11 115 -4 18 -24 51 -45 73 -22 23 -39 51 -39 63 0 27 -28 86 -40 86 -5
0 -15 2 -22 5 -8 3 -23 -4 -34 -16z"/>
<path d="M75 1958 c15 -38 78 -66 193 -84 49 -8 103 -31 122 -52 8 -9 33 -40
55 -67 63 -79 100 -110 143 -123 53 -16 125 -15 168 3 19 8 37 14 39 14 3 1
20 7 38 15 19 7 43 17 55 20 12 4 22 12 22 17 0 6 4 8 9 5 4 -3 16 3 25 13 15
16 15 19 1 31 -8 7 -15 8 -15 3 0 -16 -69 -35 -129 -34 -64 0 -155 30 -189 61
-12 11 -24 20 -27 20 -4 0 -22 16 -41 35 -53 55 -77 63 -219 70 -155 8 -200
18 -238 53 -15 14 -17 14 -12 0z"/>
<path d="M2560 1925 c0 -17 36 -73 56 -88 24 -18 24 -18 21 3 -6 36 -77 115
-77 85z"/>
<path d="M1202 1891 c-60 -21 -151 -80 -152 -100 0 -11 3 -11 17 0 11 10 44
14 102 14 70 0 95 -4 136 -24 55 -26 164 -132 166 -162 2 -32 4 -37 12 -45 4
-4 7 -30 7 -58 l1 -51 16 35 c19 41 22 59 23 125 1 57 0 66 -23 119 -9 21 -17
41 -17 43 0 3 -15 20 -33 38 -72 72 -165 96 -255 66z"/>
<path d="M2029 1901 c-33 -12 -90 -66 -120 -113 -46 -71 -62 -148 -74 -353 -2
-27 -3 -55 -4 -61 -1 -16 -43 -59 -65 -67 -24 -10 -11 -24 29 -32 100 -22 290
25 340 83 16 19 21 37 19 81 -1 65 2 54 -79 236 -28 63 -41 165 -25 194 11 22
0 40 -21 32z"/>
<path d="M1860 1839 c0 -5 -4 -8 -8 -5 -14 8 -86 -68 -109 -115 -21 -41 -63
-163 -69 -199 -3 -18 -41 -52 -109 -99 -62 -42 -50 -50 105 -67 30 -3 57 -6
60 -7 3 0 15 2 27 7 28 9 32 27 32 131 -1 100 6 144 36 235 9 26 32 66 51 89
l36 41 -26 0 c-14 0 -26 -5 -26 -11z"/>
<path d="M1522 1807 c18 -27 40 -115 42 -171 2 -44 -11 -97 -40 -161 -10 -22
-21 -48 -26 -57 -15 -35 18 -18 81 42 35 33 61 60 58 60 -3 0 1 16 9 35 8 19
14 37 14 40 0 3 0 6 1 8 0 1 2 13 5 27 2 14 7 32 11 40 3 8 7 18 7 22 1 10 28
48 49 70 33 35 26 41 -53 39 -43 -1 -96 5 -124 14 l-48 15 14 -23z"/>
<path d="M930 1779 c0 -5 10 -9 22 -9 12 0 18 3 14 7 -10 11 -36 12 -36 2z"/>
<path d="M1102 1768 c-66 -11 -111 -44 -135 -97 -41 -92 -26 -176 43 -251 128
-139 153 -208 113 -307 -7 -17 -15 -54 -19 -81 -5 -43 -3 -52 21 -78 l26 -29
-4 29 c-7 43 4 63 72 136 33 36 60 69 61 73 0 5 8 21 18 35 26 40 21 107 -13
178 -15 32 -31 61 -35 64 -4 3 -21 32 -39 65 -51 98 -40 161 34 197 25 12 45
29 45 37 0 8 -3 12 -6 8 -4 -3 -19 0 -35 9 -16 8 -29 13 -29 11 0 -3 -17 -1
-37 2 -21 4 -57 4 -81 -1z"/>
<path d="M1270 1673 c-59 -30 -69 -103 -23 -172 10 -14 16 -29 15 -33 -1 -5 2
-8 7 -8 12 0 72 -116 64 -124 -3 -3 -1 -6 5 -6 6 0 9 -6 7 -12 -3 -7 -1 -26 3
-43 l8 -29 30 44 c72 107 90 180 65 268 -5 17 -7 32 -5 32 6 0 -12 23 -49 61
-15 16 -33 29 -40 29 -7 0 -21 3 -32 5 -11 3 -36 -2 -55 -12z"/>
<path d="M2176 1352 c-4 -10 -29 -42 -56 -70 -44 -45 -65 -90 -42 -93 6 -1 47
-7 82 -13 33 -5 93 -41 98 -58 2 -10 8 -18 12 -18 5 0 7 -8 5 -17 -1 -10 2
-26 7 -35 7 -16 5 -17 -17 -8 -16 6 -25 6 -25 0 0 -6 -8 -18 -17 -28 -103
-107 -133 -150 -133 -184 l0 -23 18 21 c9 11 40 38 67 60 28 21 57 47 65 58 8
10 31 36 50 58 64 75 58 146 -20 229 -32 34 -46 55 -59 89 -19 48 -28 56 -35
32z"/>
<path d="M1450 1318 c-8 -13 -15 -29 -16 -36 -1 -7 -17 -27 -34 -45 -17 -18
-43 -51 -57 -74 -40 -69 -22 -142 56 -222 41 -42 55 -44 41 -7 -12 32 -9 133
6 188 7 27 13 51 13 53 1 3 1 6 2 8 9 26 18 157 11 157 -4 0 -14 -10 -22 -22z"/>
<path d="M1997 1249 c-27 -16 -151 -23 -175 -10 -53 28 -21 -53 52 -135 40
-44 69 -98 71 -131 2 -24 -10 -32 -17 -11 -2 6 -12 -4 -21 -23 -19 -40 -53
-73 -83 -83 -30 -9 -104 -80 -104 -99 0 -14 8 -12 43 11 58 37 94 63 120 87
12 11 31 27 42 35 17 14 18 13 12 -2 -3 -10 -2 -18 3 -18 6 0 10 5 10 11 0 5
4 8 8 5 5 -3 16 4 25 15 9 10 15 19 12 19 -2 0 2 12 10 27 10 19 13 55 11 123
-3 77 0 105 14 136 25 52 11 69 -33 43z m-47 -319 c0 -5 -5 -10 -11 -10 -5 0
-7 5 -4 10 3 6 8 10 11 10 2 0 4 -4 4 -10z"/>
<path d="M1182 1018 c-18 -18 -15 -63 6 -80 9 -8 53 -32 97 -54 43 -21 96 -54
117 -74 30 -28 48 -37 80 -39 38 -2 40 -1 27 15 -64 80 -105 108 -232 163 -36
15 -52 29 -60 51 -13 33 -17 36 -35 18z"/>
<path d="M2060 892 c-24 -8 -45 -38 -60 -81 -7 -23 -17 -41 -22 -41 -4 0 -8
-8 -8 -18 0 -29 29 -22 57 14 21 28 58 123 51 129 -2 1 -10 0 -18 -3z"/>
<path d="M1687 798 c-27 -25 -61 -114 -47 -123 17 -11 63 55 81 117 9 34 -2
36 -34 6z"/>
<path d="M1417 736 c-3 -8 2 -22 12 -32 15 -16 28 -18 96 -14 50 3 80 10 83
18 2 7 -5 12 -17 12 -12 0 -21 4 -21 8 0 5 -12 9 -27 9 -16 1 -49 4 -74 7 -35
4 -48 2 -52 -8z"/>
<path d="M1568 672 c-22 -4 -23 -25 -3 -46 14 -13 18 -13 44 2 21 12 26 19 17
27 -15 15 -38 22 -58 17z"/>
<path d="M1631 617 c-61 -21 -48 -34 36 -36 97 -1 122 11 68 33 -44 19 -58 19
-104 3z"/>
</g>
</svg>
